<?xml version="1.0" encoding="iso-8859-1"?>
<!-- Generator: Adobe Illustrator 19.0.0, SVG Export Plug-In . SVG Version: 6.00 Build 0)  -->
<svg version="1.1" id="Layer_1" xmlns="http://www.w3.org/2000/svg" xmlns:xlink="http://www.w3.org/1999/xlink" x="0px" y="0px"
	 viewBox="0 0 512.001 512.001" fill="#cb1d30" style="enable-background:new 0 0 512.001 512.001;" xml:space="preserve">
<g>
	<g>
		<path d="M357.423,215.458c-9.092-9.092-23.833-9.092-32.924,0l-66.389,66.387c-3.286-0.779-6.708-1.203-10.231-1.203
			c-24.435,0-44.316,19.899-44.316,44.358s19.88,44.358,44.316,44.358c24.46,0,44.358-19.899,44.358-44.358
			c0-3.523-0.425-6.944-1.203-10.231l66.389-66.387C366.514,239.291,366.514,224.55,357.423,215.458z"/>
	</g>
</g>
<g>
	<g>
		<path d="M437.084,126.518c-99.837-99.837-262.318-99.839-362.207,0.005c-86.212,86.258-99.573,222.316-31.769,323.514
			c7.156,10.681,21.619,13.539,32.3,6.382c10.683-7.156,13.54-21.618,6.382-32.3c-19.053-28.435-30.27-60.237-33.926-92.598h21.887
			c12.859,0,23.281-10.424,23.281-23.281c0-12.857-10.422-23.281-23.281-23.281H47.789c4.219-38.674,19.11-76.218,44.212-107.793
			l15.842,15.842c4.544,4.546,10.504,6.82,16.459,6.82c5.96,0,11.917-2.274,16.463-6.82c9.09-9.09,9.09-23.832,0-32.924
			l-15.912-15.913c32.055-25.744,69.977-40.675,108.842-44.798v21.985c0,12.857,10.425,23.281,23.281,23.281
			c12.859,0,23.281-10.424,23.281-23.281V99.583c38.185,4.413,75.369,19.28,106.876,44.598l-15.901,15.902
			c-9.092,9.092-9.09,23.832,0.002,32.925c4.546,4.546,10.504,6.818,16.459,6.818c5.96,0,11.918-2.274,16.463-6.82l15.826-15.828
			c25.109,31.573,40.003,69.111,44.224,107.779h-21.961c-12.856,0-23.281,10.424-23.281,23.281
			c0,12.857,10.425,23.281,23.281,23.281h21.89c-3.658,32.36-14.878,64.16-33.936,92.595c-7.16,10.681-4.304,25.142,6.374,32.3
			c3.981,2.668,8.485,3.945,12.941,3.945c7.503,0,14.869-3.621,19.362-10.321C536.71,348.834,523.338,212.773,437.084,126.518z"/>
	</g>
</g>
<g>
</g>
<g>
</g>
<g>
</g>
<g>
</g>
<g>
</g>
<g>
</g>
<g>
</g>
<g>
</g>
<g>
</g>
<g>
</g>
<g>
</g>
<g>
</g>
<g>
</g>
<g>
</g>
<g>
</g>
</svg>
